<?xml version="1.0" encoding="utf-8"?>
<!-- Generator: Adobe Illustrator 19.0.0, SVG Export Plug-In . SVG Version: 6.00 Build 0)  -->
<svg version="1.1" id="Layer_1" xmlns="http://www.w3.org/2000/svg" xmlns:xlink="http://www.w3.org/1999/xlink" x="0px" y="0px"
	 viewBox="2.7 7.7 235 35.8" enable-background="new 2.7 7.7 235 35.8" xml:space="preserve">
<g id="XMLID_7_" enable-background="new    ">
	<path fill="#0095AD" d="M177.2,41.7c0,0.1-0.1,0.3-0.1,0.5c-0.2,0-0.3,0.1-0.4,0.1s-0.2,0-0.3,0c-0.2,0-0.4,0-0.5-0.1
		s-0.2-0.1-0.3-0.3s-0.1-0.3-0.1-0.5v-0.1c0-0.1,0-0.3,0-0.7l0.1-1.7h-0.5c0-0.1,0-0.3,0-0.4h0.5c0-0.1,0-0.4,0-0.7
		c0.2,0,0.4-0.1,0.6-0.1c0,0.4,0,0.6,0,0.8h1c0,0.2,0,0.3,0,0.4h-1l-0.1,2.1v0.2c0,0.2,0,0.3,0.1,0.4s0.1,0.2,0.2,0.2
		c0.1,0,0.2,0.1,0.3,0.1s0.1,0,0.2,0S177,41.7,177.2,41.7z"/>
	<path fill="#0095AD" d="M177.8,42.1l0.1-1.6l0.1-2.2v-1.2h0.3c0.1,0,0.2,0,0.3,0l-0.1,1.3v0.8c0.1-0.1,0.1-0.2,0.2-0.3
		c0-0.1,0.1-0.1,0.2-0.2c0.1-0.1,0.1-0.1,0.2-0.2c0.1,0,0.2-0.1,0.2-0.1c0.1,0,0.2-0.1,0.3-0.1s0.3,0,0.4,0c0.2,0,0.4,0,0.6,0.1
		s0.4,0.1,0.5,0.2c0.1,0.1,0.2,0.2,0.3,0.4c0,0.2,0.1,0.3,0.1,0.5c0,0.1,0,0.1,0,0.2c0,0.2,0,0.3,0,0.5l-0.1,1.4c0,0.1,0,0.3,0,0.5
		c-0.1,0-0.3,0-0.3,0c-0.1,0-0.2,0-0.4,0c0-0.3,0.1-0.7,0.1-1.3s0.1-1,0.1-1.2s0-0.4-0.1-0.5s-0.2-0.2-0.4-0.3s-0.3-0.1-0.6-0.1
		c-0.2,0-0.4,0-0.5,0.1s-0.3,0.1-0.4,0.2c-0.1,0.1-0.2,0.2-0.2,0.3c-0.1,0.1-0.1,0.3-0.1,0.4c0,0.2-0.1,0.6-0.1,1c0,0.2,0,0.7,0,1.3
		c-0.1,0-0.2,0-0.3,0C178.1,42.1,177.9,42.1,177.8,42.1z"/>
	<path fill="#0095AD" d="M185.4,41.6c0,0.1-0.1,0.3-0.1,0.5c-0.2,0.1-0.4,0.1-0.6,0.1c-0.2,0-0.3,0-0.5,0c-0.3,0-0.6,0-0.8-0.1
		s-0.5-0.2-0.6-0.4c-0.2-0.2-0.3-0.4-0.4-0.6s-0.1-0.5-0.1-0.8c0-0.4,0.1-0.7,0.2-1s0.4-0.6,0.6-0.7c0.3-0.2,0.6-0.3,1.1-0.3
		c0.2,0,0.4,0,0.6,0.1s0.4,0.2,0.5,0.3s0.2,0.3,0.3,0.5s0.1,0.4,0.1,0.6c0,0.1,0,0.2,0,0.3h-2.8c0,0.1,0,0.2,0,0.3
		c0,0.3,0.1,0.5,0.2,0.7s0.3,0.4,0.5,0.5s0.5,0.2,0.7,0.2C184.6,41.8,185,41.7,185.4,41.6z M182.9,39.8h2.2c0-0.2,0-0.3,0-0.4
		c0-0.1,0-0.2-0.1-0.3s-0.1-0.2-0.2-0.2c-0.1-0.1-0.2-0.1-0.3-0.2s-0.2-0.1-0.4-0.1c-0.1,0-0.3,0-0.4,0.1c-0.1,0-0.2,0.1-0.3,0.2
		c-0.1,0.1-0.2,0.1-0.2,0.2c-0.1,0.1-0.1,0.2-0.2,0.3C183,39.5,183,39.6,182.9,39.8z"/>
	<path fill="#0095AD" d="M188.4,42.1v-0.7l0.1-2.6H188c0-0.1,0-0.3,0-0.5h0.5c0-0.2,0-0.4,0-0.5s0-0.2,0-0.3s0.1-0.2,0.1-0.2
		c0.1-0.1,0.1-0.1,0.2-0.2s0.2-0.1,0.3-0.1s0.3,0,0.4,0c0.2,0,0.4,0,0.7,0.1c0,0.1,0,0.3,0,0.5c-0.2-0.1-0.4-0.1-0.6-0.1
		c-0.1,0-0.2,0-0.3,0s-0.1,0.1-0.2,0.1c0,0-0.1,0.1-0.1,0.2s-0.1,0.1-0.1,0.2c0,0.1,0,0.2,0,0.3v0.2h1c0,0.1,0,0.3,0,0.5h-1
		l-0.1,1.9v1.4c-0.2,0-0.3,0-0.3,0C188.7,42.1,188.5,42.1,188.4,42.1z"/>
	<path fill="#0095AD" d="M194,42.1c-0.1,0-0.2,0-0.3,0s-0.2,0-0.3,0v-0.7c-0.1,0.1-0.1,0.2-0.2,0.3c0,0.1-0.1,0.1-0.2,0.2
		c-0.1,0.1-0.1,0.1-0.2,0.1c-0.1,0-0.1,0.1-0.2,0.1c-0.1,0-0.2,0.1-0.3,0.1s-0.3,0-0.4,0c-0.3,0-0.6,0-0.8-0.1s-0.4-0.2-0.5-0.4
		s-0.2-0.4-0.2-0.7c0,0,0-0.1,0-0.2c0-0.1,0-0.2,0-0.4l0.1-1.2v-0.4c0-0.1,0-0.2,0-0.3h0.3c0.1,0,0.2,0,0.3,0c0,0.4-0.1,0.9-0.1,1.4
		s0,0.8,0,1s0,0.4,0.1,0.5s0.2,0.2,0.4,0.3s0.3,0.1,0.6,0.1c0.2,0,0.4,0,0.5-0.1s0.3-0.1,0.4-0.2c0.1-0.1,0.2-0.2,0.3-0.4
		c0.1-0.1,0.1-0.3,0.1-0.5c0-0.1,0-0.4,0.1-0.8c0-0.4,0-0.9,0-1.4h0.3c0.1,0,0.2,0,0.3,0c0,0.4-0.1,1.1-0.1,2
		C194.1,40.9,194.1,41.5,194,42.1z"/>
	<path fill="#0095AD" d="M196.9,41.7c0,0.1-0.1,0.3-0.1,0.5c-0.2,0-0.3,0.1-0.4,0.1s-0.2,0-0.3,0c-0.2,0-0.4,0-0.5-0.1
		s-0.2-0.1-0.3-0.3c-0.1-0.1-0.1-0.3-0.1-0.5v-0.1c0-0.1,0-0.3,0-0.7l0.1-1.7h-0.5c0-0.1,0-0.3,0-0.4h0.5c0-0.1,0-0.4,0-0.7
		c0.2,0,0.4-0.1,0.6-0.1c0,0.4,0,0.6,0,0.8h1c0,0.2,0,0.3,0,0.4h-1l-0.1,2.1v0.2c0,0.2,0,0.3,0.1,0.4c0,0.1,0.1,0.2,0.2,0.2
		c0.1,0,0.2,0.1,0.3,0.1s0.1,0,0.2,0C196.6,41.7,196.8,41.7,196.9,41.7z"/>
	<path fill="#0095AD" d="M201,42.1c-0.1,0-0.2,0-0.3,0s-0.2,0-0.3,0v-0.7c-0.1,0.1-0.1,0.2-0.2,0.3c0,0.1-0.1,0.1-0.2,0.2
		c-0.1,0.1-0.1,0.1-0.2,0.1c-0.1,0-0.1,0.1-0.2,0.1c-0.1,0-0.2,0.1-0.3,0.1s-0.3,0-0.4,0c-0.3,0-0.6,0-0.8-0.1s-0.4-0.2-0.5-0.4
		s-0.2-0.4-0.2-0.7c0,0,0-0.1,0-0.2c0-0.1,0-0.2,0-0.4l0.1-1.2v-0.4c0-0.1,0-0.2,0-0.3h0.3c0.1,0,0.2,0,0.3,0c0,0.4-0.1,0.9-0.1,1.4
		s0,0.8,0,1s0,0.4,0.1,0.5s0.2,0.2,0.4,0.3s0.3,0.1,0.6,0.1c0.2,0,0.4,0,0.5-0.1s0.3-0.1,0.4-0.2c0.1-0.1,0.2-0.2,0.3-0.4
		c0.1-0.1,0.1-0.3,0.1-0.5c0-0.1,0-0.4,0.1-0.8c0-0.4,0-0.9,0-1.4h0.3c0.1,0,0.2,0,0.3,0c0,0.4-0.1,1.1-0.1,2
		C201,40.9,201,41.5,201,42.1z"/>
	<path fill="#0095AD" d="M202,42.1c0.1-1.4,0.1-2.6,0.1-3.4v-0.3c0.1,0,0.2,0,0.3,0s0.2,0,0.3,0V39c0.1-0.2,0.2-0.3,0.2-0.3
		c0.1-0.1,0.2-0.1,0.2-0.2s0.2-0.1,0.3-0.1s0.2,0,0.3,0s0.2,0,0.3,0c0,0.2,0,0.3,0,0.5c-0.2,0-0.3-0.1-0.4-0.1c-0.1,0-0.3,0-0.4,0.1
		c-0.1,0-0.2,0.1-0.3,0.2c-0.1,0.1-0.2,0.2-0.2,0.3s-0.1,0.3-0.1,0.4c0,0.2,0,0.5-0.1,0.9c0,0.3,0,0.7,0,1.1V42c-0.1,0-0.2,0-0.3,0
		C202.3,42.1,202.1,42.1,202,42.1z"/>
	<path fill="#0095AD" d="M207.7,41.6c0,0.1-0.1,0.3-0.1,0.5c-0.2,0.1-0.4,0.1-0.6,0.1c-0.2,0-0.3,0-0.5,0c-0.3,0-0.6,0-0.8-0.1
		s-0.5-0.2-0.6-0.4c-0.2-0.2-0.3-0.4-0.4-0.6c-0.1-0.2-0.1-0.5-0.1-0.8c0-0.4,0.1-0.7,0.2-1s0.4-0.6,0.6-0.7
		c0.3-0.2,0.6-0.3,1.1-0.3c0.2,0,0.4,0,0.6,0.1c0.2,0.1,0.4,0.2,0.5,0.3s0.2,0.3,0.3,0.5s0.1,0.4,0.1,0.6c0,0.1,0,0.2,0,0.3h-2.8
		c0,0.1,0,0.2,0,0.3c0,0.3,0.1,0.5,0.2,0.7c0.1,0.2,0.3,0.4,0.5,0.5s0.5,0.2,0.7,0.2C206.9,41.8,207.3,41.7,207.7,41.6z M205.2,39.8
		h2.2c0-0.2,0-0.3,0-0.4c0-0.1,0-0.2-0.1-0.3s-0.1-0.2-0.2-0.2c-0.1-0.1-0.2-0.1-0.3-0.2s-0.2-0.1-0.4-0.1c-0.1,0-0.3,0-0.4,0.1
		c-0.1,0-0.2,0.1-0.3,0.2c-0.1,0.1-0.2,0.1-0.2,0.2c-0.1,0.1-0.1,0.2-0.2,0.3C205.3,39.5,205.3,39.6,205.2,39.8z"/>
	<path fill="#0095AD" d="M210.6,42.1l0.1-0.9l0.1-1.6v-1.2h0.3h0.3c0,0.4-0.1,0.8-0.1,1.2s0,0.9-0.1,1.4c0,0.5,0,0.9,0,1.2
		c-0.2,0-0.3,0-0.3,0C210.9,42.1,210.8,42.1,210.6,42.1z M210.8,37.6c0-0.2,0-0.4,0-0.5c0.1,0,0.3,0,0.4,0c0.1,0,0.3,0,0.4,0
		c0,0.1,0,0.3,0,0.5c-0.1,0-0.2,0-0.3,0C211,37.6,210.9,37.6,210.8,37.6z"/>
	<path fill="#0095AD" d="M212.1,42.1v-0.3c0,0,0-0.1,0-0.3c0.4,0.2,0.7,0.2,1.1,0.2c0.2,0,0.3,0,0.4-0.1c0.1,0,0.2-0.1,0.3-0.2
		c0.1-0.1,0.1-0.2,0.1-0.3s0-0.1,0-0.2s0-0.1-0.1-0.1c0,0-0.1-0.1-0.1-0.2c-0.1-0.1-0.2-0.2-0.4-0.3c-0.2-0.2-0.3-0.3-0.5-0.4
		s-0.2-0.2-0.3-0.3s-0.1-0.2-0.2-0.3c0-0.1-0.1-0.2-0.1-0.3c0-0.2,0.1-0.3,0.2-0.5s0.2-0.3,0.4-0.3c0.2-0.1,0.4-0.1,0.7-0.1
		s0.6,0,0.9,0.1c0,0.2,0,0.4,0,0.5c-0.3-0.1-0.5-0.2-0.8-0.2c-0.1,0-0.3,0-0.4,0.1c-0.1,0-0.2,0.1-0.3,0.2c-0.1,0.1-0.1,0.2-0.1,0.3
		s0,0.1,0,0.2c0,0.1,0.1,0.1,0.1,0.2c0.1,0.1,0.1,0.1,0.2,0.2c0.1,0.1,0.2,0.2,0.4,0.3c0.2,0.2,0.4,0.3,0.4,0.4s0.1,0.2,0.2,0.3
		c0.1,0.1,0.1,0.2,0.1,0.3s0,0.2,0,0.3c0,0.2-0.1,0.3-0.2,0.5c-0.1,0.1-0.3,0.3-0.5,0.3c-0.2,0.1-0.4,0.1-0.7,0.1
		c-0.1,0-0.2,0-0.4,0c-0.1,0-0.3,0-0.4,0C212.4,42.1,212.3,42.1,212.1,42.1z"/>
	<path fill="#0095AD" d="M217.2,42.1c0.1-1.5,0.2-2.8,0.2-3.8h0.3c0.1,0,0.2,0,0.3,0V39c0.1-0.1,0.1-0.2,0.1-0.2s0.1-0.1,0.1-0.2
		s0.1-0.1,0.2-0.2c0.1-0.1,0.2-0.1,0.3-0.1s0.2-0.1,0.3-0.1s0.2,0,0.3,0c0.2,0,0.4,0,0.6,0.1c0.2,0.1,0.4,0.1,0.5,0.3
		c0.1,0.1,0.2,0.2,0.3,0.4s0.1,0.3,0.1,0.5c0,0,0,0.1,0,0.2c0,0.1,0,0.2,0,0.4l-0.1,1.6c0,0.1,0,0.3,0,0.5c-0.1,0-0.2,0-0.3,0
		s-0.2,0-0.3,0c0-0.3,0-0.6,0.1-0.9v-0.9c0-0.3,0-0.5,0-0.7s0-0.4-0.1-0.5s-0.2-0.2-0.4-0.3s-0.3-0.1-0.5-0.1
		c-0.3,0-0.5,0.1-0.7,0.2c-0.2,0.1-0.3,0.3-0.4,0.5c-0.1,0.2-0.1,0.4-0.2,0.7c0,0.4-0.1,1-0.1,1.8c-0.1,0-0.2,0-0.3,0
		S217.3,42.1,217.2,42.1z"/>
	<path fill="#0095AD" d="M223.6,38.3c0.3,0,0.5,0,0.7,0.1s0.4,0.2,0.6,0.4c0.2,0.2,0.3,0.4,0.4,0.6c0.1,0.2,0.1,0.5,0.1,0.8
		s0,0.6-0.1,0.8c-0.1,0.3-0.2,0.5-0.4,0.7s-0.4,0.3-0.6,0.4s-0.5,0.1-0.8,0.1s-0.5,0-0.7-0.1s-0.4-0.2-0.6-0.4
		c-0.2-0.2-0.3-0.4-0.4-0.6s-0.1-0.5-0.1-0.8c0-0.4,0.1-0.8,0.2-1.1s0.4-0.6,0.7-0.7C222.9,38.4,223.3,38.3,223.6,38.3z M223.6,38.8
		c-0.3,0-0.5,0.1-0.7,0.2s-0.4,0.3-0.5,0.6s-0.2,0.5-0.2,0.8s0,0.5,0.1,0.7s0.2,0.4,0.4,0.5s0.4,0.2,0.7,0.2c0.2,0,0.4,0,0.5-0.1
		c0.2-0.1,0.3-0.2,0.4-0.3s0.2-0.3,0.3-0.5s0.1-0.4,0.1-0.7c0-0.2,0-0.4-0.1-0.6c-0.1-0.2-0.1-0.3-0.3-0.5c-0.1-0.1-0.3-0.2-0.4-0.2
		C223.9,38.8,223.8,38.8,223.6,38.8z"/>
	<path fill="#0095AD" d="M227.2,42.1l-0.2-0.5l-1.2-3.2c0.1,0,0.2,0,0.3,0s0.2,0,0.3,0l0.3,1l0.8,2.2l1.2-3.2c0.1,0,0.2,0,0.3,0
		s0.2,0,0.3,0l0.9,3.2l1-2.5l0.3-0.7c0.1,0,0.2,0,0.3,0h0.3l-1.2,2.8l-0.4,1c-0.1,0-0.2,0-0.3,0s-0.2,0-0.4,0l-0.7-2.6
		c0-0.2-0.1-0.3-0.1-0.5l-0.1,0.2c0,0.1-0.1,0.2-0.2,0.4l-0.8,2.1c0,0.1-0.1,0.2-0.1,0.4c-0.1,0-0.2,0-0.3,0
		C227.5,42.1,227.3,42.1,227.2,42.1z"/>
</g>
<g id="XMLID_6_" enable-background="new    ">
	<path fill="#3A338A" d="M76.3,34.3l-0.1-1.2c0-0.1,0-0.5-0.1-1.2c1.6,0.7,3.1,1.1,4.5,1.1c0.7,0,1.3-0.1,1.8-0.3s0.9-0.5,1.1-0.8
		c0.2-0.4,0.4-0.8,0.4-1.2c0-0.2,0-0.4-0.1-0.7c-0.1-0.2-0.2-0.4-0.3-0.6c-0.1-0.2-0.3-0.4-0.6-0.7s-0.8-0.7-1.7-1.4
		c-0.9-0.7-1.5-1.2-1.9-1.6s-0.8-0.8-1.1-1.2s-0.5-0.8-0.7-1.2c-0.1-0.4-0.2-0.8-0.2-1.3c0-0.7,0.2-1.3,0.6-2
		c0.4-0.6,1.1-1.1,1.9-1.4s1.8-0.5,2.9-0.5c1.2,0,2.6,0.1,4,0.4c0,0.8,0.1,1.6,0.2,2.3c-1.2-0.5-2.4-0.7-3.5-0.7
		c-0.6,0-1.2,0.1-1.7,0.2s-0.9,0.4-1.2,0.7S80,21.8,80,22.2c0,0.3,0,0.5,0.1,0.7s0.2,0.5,0.5,0.8c0.2,0.3,0.5,0.5,0.8,0.8
		s0.9,0.8,1.8,1.5s1.5,1.3,1.9,1.6c0.3,0.4,0.6,0.7,0.9,1.1s0.4,0.7,0.5,1.1s0.2,0.7,0.2,1.1c0,0.7-0.2,1.4-0.7,2.1
		c-0.4,0.6-1.1,1.1-2,1.5S82.2,35,81.1,35c-0.5,0-1,0-1.6-0.1s-1.1-0.1-1.6-0.2C77.5,34.6,77,34.5,76.3,34.3z"/>
	<path fill="#3A338A" d="M87.4,42c-0.1-0.9-0.2-1.7-0.3-2.3c0.5,0.3,1,0.4,1.5,0.5s0.8,0.1,1.2,0.1c0.4,0,0.8-0.1,1.2-0.2
		s0.7-0.3,1-0.6c0.2-0.2,0.5-0.6,0.8-1s0.6-0.9,0.9-1.5s0.6-1.2,0.9-2L91,25.4l-2.5-6.9c0.8,0,1.3,0,1.5,0c0.3,0,0.8,0,1.4,0
		c0.2,0.7,0.3,1.3,0.4,1.7c0.1,0.4,0.4,1.2,0.8,2.4l2.4,7.3c0.3,0.8,0.5,1.7,0.8,2.7l1.8-4.4l3.3-7.8c0.1-0.2,0.2-0.5,0.3-0.7
		c0.1-0.2,0.2-0.6,0.4-1.2c0.7,0,1.1,0,1.4,0c0.2,0,0.7,0,1.5,0c-0.4,0.9-1.4,3.1-3,6.6l-5.9,13.1c-0.4,0.9-0.8,1.6-1.1,2
		c-0.3,0.4-0.6,0.7-0.9,0.9s-0.5,0.4-0.9,0.6c-0.4,0.2-0.8,0.3-1.3,0.4c-0.5,0.1-1,0.2-1.5,0.2C89.2,42.4,88.4,42.2,87.4,42z"/>
	<path fill="#3A338A" d="M105.9,34.6c0.5-6.7,0.8-12,0.8-16.2h1.4c0.4,0,0.8,0,1.4,0l-0.2,3.2c0.3-0.4,0.5-0.8,0.6-1
		c0.2-0.2,0.4-0.5,0.6-0.8c0.3-0.3,0.6-0.5,0.9-0.7c0.4-0.2,0.8-0.4,1.3-0.6s1-0.3,1.5-0.3s1-0.1,1.5-0.1c0.9,0,1.8,0.1,2.6,0.3
		c0.9,0.2,1.5,0.6,2.1,1.1s0.9,1.1,1.1,1.7s0.3,1.3,0.3,2c0,0.1,0,0.4,0,0.8s0,0.9-0.1,1.5l-0.3,6.7c0,0.6,0,1.4,0,2.3
		c-0.5,0-0.9,0-1.4,0s-1,0-1.5,0c0.1-1.3,0.2-2.5,0.2-3.7l0.2-3.7c0.1-1.3,0.1-2.2,0.1-2.9c0-0.9-0.2-1.7-0.5-2.2
		c-0.3-0.6-0.8-1-1.5-1.3s-1.5-0.5-2.4-0.5c-1.2,0-2.3,0.3-3.2,0.9c-0.8,0.5-1.4,1.3-1.9,2.3c-0.3,0.7-0.5,1.8-0.7,3.2
		c-0.2,1.7-0.3,4.3-0.3,8c-0.6,0-1.1,0-1.4,0C107.1,34.6,106.6,34.6,105.9,34.6z"/>
	<path fill="#3A338A" d="M138.9,32.1c-0.1,0.6-0.3,1.3-0.4,2.2c-1,0.3-1.9,0.4-2.7,0.5s-1.5,0.1-2.2,0.1c-1.3,0-2.5-0.2-3.6-0.5
		s-2-0.9-2.7-1.7c-0.8-0.8-1.3-1.7-1.6-2.7c-0.3-1-0.5-2.1-0.5-3.2c0-1.6,0.3-3.1,0.9-4.4c0.6-1.4,1.5-2.4,2.7-3.2
		c1.2-0.8,2.8-1.2,4.6-1.2c1,0,1.9,0.1,2.8,0.4c0.9,0.3,1.6,0.7,2.2,1.3c0.6,0.6,1,1.3,1.4,2.1c0.3,0.8,0.5,1.8,0.5,2.8
		c0,0.4,0,0.8-0.1,1.1H128c0,0.6-0.1,1-0.1,1.3c0,1.1,0.2,2.1,0.7,3.1c0.5,0.9,1.2,1.7,2.1,2.1c0.9,0.5,2,0.7,3.2,0.7
		C135.3,33.1,137,32.8,138.9,32.1z M128.2,24.5h9.5c0-0.7-0.1-1.2-0.1-1.6c-0.1-0.4-0.2-0.8-0.4-1.2c-0.2-0.4-0.5-0.7-0.8-1
		s-0.8-0.5-1.2-0.7s-1-0.2-1.6-0.2s-1.2,0.1-1.7,0.3c-0.5,0.2-1,0.4-1.5,0.7c-0.4,0.3-0.8,0.6-1.1,1s-0.5,0.8-0.7,1.2
		C128.5,23.4,128.3,23.9,128.2,24.5z"/>
	<path fill="#3A338A" d="M143,34.6c0.4-6.1,0.6-11,0.6-14.7v-1.5c0.5,0,1,0,1.3,0c0.4,0,0.9,0,1.4,0l-0.1,2.6c0.4-0.7,0.7-1.2,1-1.5
		s0.6-0.6,1-0.8c0.4-0.2,0.8-0.4,1.3-0.5s1-0.2,1.5-0.2c0.4,0,0.9,0.1,1.3,0.2c0,0.7,0,1.5,0.1,2.4c-0.7-0.2-1.2-0.3-1.8-0.3
		s-1.2,0.1-1.7,0.3c-0.5,0.2-0.9,0.5-1.3,0.9s-0.7,0.9-1,1.5c-0.2,0.5-0.4,1.1-0.5,1.8c-0.1,0.7-0.2,2.1-0.3,4.1
		c0,1.4-0.1,3-0.1,4.6v1.1c-0.6,0-1,0-1.4,0C144.1,34.6,143.7,34.6,143,34.6z"/>
	<path fill="#3A338A" d="M155.5,39.3c1.4,0.4,2.6,0.7,3.5,0.9c0.9,0.1,1.8,0.2,2.6,0.2c0.9,0,1.7-0.1,2.5-0.4
		c0.6-0.2,1.2-0.5,1.6-0.9c0.3-0.3,0.6-0.7,0.8-1.1c0.3-0.6,0.5-1.4,0.6-2.3c0.1-0.8,0.2-2.3,0.2-4.5c-0.3,0.5-0.5,0.9-0.7,1.2
		s-0.5,0.6-0.8,0.9c-0.4,0.3-0.8,0.6-1.2,0.8s-1,0.4-1.6,0.6s-1.3,0.2-1.9,0.2c-1,0-1.9-0.1-2.7-0.4c-0.8-0.3-1.6-0.7-2.3-1.3
		s-1.2-1.4-1.5-2.4s-0.5-2-0.5-3c0-1.4,0.3-2.8,0.8-4.1s1.3-2.4,2.3-3.3s2.1-1.5,3.4-1.8c1.2-0.4,2.6-0.5,4.1-0.5
		c1.6,0,3.7,0.2,6.1,0.7l-0.2,2l-0.5,8.9c0,0.2,0,1.3-0.1,3.3l-0.1,3.3c-0.1,0.7-0.1,1.3-0.3,1.8c-0.1,0.4-0.3,0.9-0.5,1.2
		c-0.2,0.4-0.4,0.7-0.7,1s-0.6,0.6-1,0.8s-0.8,0.4-1.2,0.6c-0.6,0.2-1.2,0.4-1.8,0.5c-0.7,0.1-1.4,0.2-2.2,0.2c-1,0-2.1-0.1-3.1-0.2
		c-1-0.1-2.1-0.3-3.4-0.6v-0.9C155.6,40.5,155.5,40,155.5,39.3z M167.7,20.5c-1.2-0.2-2.3-0.4-3.3-0.4s-2,0.1-2.9,0.4
		c-0.9,0.2-1.7,0.7-2.4,1.3s-1.3,1.5-1.7,2.5s-0.6,2.1-0.6,3.2c0,1,0.2,2,0.6,2.8c0.4,0.9,1,1.5,1.7,1.9c0.8,0.4,1.7,0.6,2.7,0.6
		c0.9,0,1.6-0.2,2.3-0.5s1.3-0.8,1.8-1.4s0.9-1.4,1.2-2.2c0.2-0.6,0.4-1.5,0.5-2.6C167.6,25.3,167.6,23.4,167.7,20.5z"/>
	<path fill="#3A338A" d="M174.2,34.6l0.3-4l0.3-6.9l0.1-5.3h1.5h1.4c-0.1,1.7-0.2,3.4-0.3,5.2c-0.1,1.8-0.2,3.8-0.2,5.9
		c-0.1,2.1-0.1,3.8-0.1,5c-0.7,0-1.1,0-1.4,0C175.5,34.6,175,34.6,174.2,34.6z M175,15c0-1,0-1.8,0-2.3c0.6,0,1.1,0,1.5,0
		c0.6,0,1.1,0,1.5,0c0,0.3-0.1,1.1-0.1,2.3c-0.6,0-1.1,0-1.5,0C176.1,15,175.6,15,175,15z"/>
	<path fill="#3A338A" d="M180.8,34.3l-0.1-1.2c0-0.1,0-0.5-0.1-1.2c1.6,0.7,3.1,1.1,4.5,1.1c0.7,0,1.3-0.1,1.8-0.3s0.9-0.5,1.1-0.8
		c0.3-0.4,0.4-0.8,0.4-1.2c0-0.2,0-0.4-0.1-0.7c-0.1-0.2-0.2-0.4-0.3-0.6s-0.3-0.4-0.6-0.7c-0.3-0.2-0.8-0.7-1.7-1.4
		c-0.9-0.7-1.5-1.2-1.9-1.6s-0.8-0.8-1.1-1.2s-0.5-0.8-0.7-1.2c-0.1-0.4-0.2-0.8-0.2-1.3c0-0.7,0.2-1.3,0.6-2s1.1-1.1,1.9-1.4
		s1.8-0.5,2.9-0.5c1.2,0,2.6,0.1,4,0.4c0,0.8,0.1,1.6,0.2,2.3c-1.2-0.5-2.4-0.7-3.5-0.7c-0.6,0-1.2,0.1-1.7,0.2
		c-0.5,0.2-0.9,0.4-1.2,0.7c-0.2,0.3-0.4,0.7-0.4,1.1c0,0.3,0,0.5,0.1,0.7s0.2,0.5,0.5,0.8c0.2,0.3,0.5,0.5,0.8,0.8s0.9,0.8,1.8,1.5
		c0.9,0.7,1.5,1.3,1.9,1.6s0.6,0.7,0.9,1.1c0.2,0.4,0.4,0.7,0.5,1.1s0.2,0.7,0.2,1.1c0,0.7-0.2,1.4-0.7,2.1c-0.4,0.6-1.1,1.1-2,1.5
		s-1.8,0.5-2.9,0.5c-0.5,0-1,0-1.6-0.1s-1.1-0.1-1.6-0.2C181.9,34.6,181.4,34.5,180.8,34.3z"/>
	<path fill="#3A338A" d="M202.6,32.5c-0.1,0.5-0.2,1.2-0.4,2.1c-0.7,0.2-1.3,0.3-1.7,0.3s-0.8,0.1-1.2,0.1c-0.9,0-1.7-0.1-2.3-0.4
		c-0.6-0.2-1-0.6-1.3-1.1s-0.5-1.2-0.5-2.1c0-0.1,0-0.3,0-0.6s0.1-1.3,0.2-3.1l0.4-7.1h-2.1c0-0.4,0.1-1.1,0.1-1.9h2.2
		c0.1-0.6,0.1-1.6,0.2-3c1-0.2,1.8-0.4,2.5-0.5c-0.1,1.6-0.1,2.8-0.1,3.6h4.4c-0.1,0.7-0.1,1.3-0.1,1.9h-4.4l-0.4,9v0.7
		c0,0.8,0.1,1.4,0.3,1.7c0.2,0.4,0.4,0.7,0.8,0.8s0.7,0.3,1.1,0.3c0.3,0,0.6,0,0.9-0.1C201.3,32.8,201.8,32.7,202.6,32.5z"/>
	<path fill="#3A338A" d="M205,34.6l0.3-4l0.3-6.9l0.1-5.3h1.5h1.4c-0.1,1.7-0.2,3.4-0.3,5.2c-0.1,1.8-0.2,3.8-0.2,5.9
		c-0.1,2.1-0.1,3.8-0.1,5c-0.7,0-1.1,0-1.4,0C206.3,34.6,205.8,34.6,205,34.6z M205.8,15c0-1,0-1.8,0-2.3c0.6,0,1.1,0,1.5,0
		c0.6,0,1.1,0,1.5,0c0,0.3-0.1,1.1-0.1,2.3c-0.6,0-1.1,0-1.5,0C206.9,15,206.4,15,205.8,15z"/>
	<path fill="#3A338A" d="M224.2,32.2c0,0.2-0.1,0.5-0.2,0.9c-0.1,0.5-0.2,0.9-0.2,1.4c-0.8,0.2-1.5,0.3-2.2,0.4
		c-0.7,0.1-1.3,0.1-1.9,0.1c-1.1,0-2.2-0.2-3.2-0.5s-1.8-0.8-2.5-1.5s-1.3-1.6-1.6-2.6s-0.5-2.1-0.5-3.3c0-1.6,0.3-3,0.8-4.4
		c0.6-1.4,1.4-2.5,2.6-3.3s2.8-1.2,4.9-1.2c1.5,0,3,0.2,4.4,0.6c0.1,0.9,0.1,1.6,0.2,2.2c-1-0.3-1.8-0.5-2.5-0.6s-1.2-0.2-1.8-0.2
		c-0.9,0-1.8,0.2-2.5,0.5s-1.4,0.8-1.9,1.5s-0.9,1.4-1.1,2.2c-0.2,0.9-0.3,1.7-0.3,2.6c0,1.2,0.2,2.3,0.6,3.2s1,1.6,2,2.1
		c0.9,0.5,2,0.7,3.1,0.7C221.4,32.9,222.7,32.7,224.2,32.2z"/>
	<path fill="#3A338A" d="M227,34.3l-0.1-1.2c0-0.1,0-0.5-0.1-1.2c1.6,0.7,3.1,1.1,4.5,1.1c0.7,0,1.3-0.1,1.8-0.3s0.9-0.5,1.1-0.8
		c0.3-0.4,0.4-0.8,0.4-1.2c0-0.2,0-0.4-0.1-0.7c-0.1-0.2-0.2-0.4-0.3-0.6s-0.3-0.4-0.6-0.7c-0.3-0.2-0.8-0.7-1.7-1.4
		c-0.9-0.7-1.5-1.2-1.9-1.6s-0.8-0.8-1.1-1.2s-0.5-0.8-0.7-1.2c-0.1-0.4-0.2-0.8-0.2-1.3c0-0.7,0.2-1.3,0.6-2
		c0.4-0.6,1.1-1.1,1.9-1.4c0.8-0.3,1.8-0.5,2.9-0.5c1.2,0,2.6,0.1,4,0.4c0,0.8,0.1,1.6,0.2,2.3c-1.2-0.5-2.4-0.7-3.5-0.7
		c-0.6,0-1.2,0.1-1.7,0.2c-0.5,0.2-0.9,0.4-1.2,0.7s-0.4,0.7-0.4,1.1c0,0.3,0,0.5,0.1,0.7s0.2,0.5,0.5,0.8c0.2,0.3,0.5,0.5,0.8,0.8
		s0.9,0.8,1.8,1.5s1.5,1.3,1.9,1.6c0.3,0.4,0.6,0.7,0.9,1.1c0.2,0.4,0.4,0.7,0.5,1.1s0.2,0.7,0.2,1.1c0,0.7-0.2,1.4-0.7,2.1
		c-0.4,0.6-1.1,1.1-2,1.5s-1.8,0.5-2.9,0.5c-0.5,0-1,0-1.6-0.1s-1.1-0.1-1.6-0.2C228.2,34.6,227.6,34.5,227,34.3z"/>
</g>
<polygon id="XMLID_5_" fill="#3A338A" points="41.1,30.2 44.9,26.5 45.6,25.7 44.9,25 41.1,21.2 36.6,25.7 36.7,25.7 36.6,25.7 "/>
<path id="XMLID_4_" fill="#3A338A" d="M30.7,31.7l-2.2,2.2c-2.2,2.2-5.1,3.4-8.1,3.4c-3.1,0-6-1.2-8.1-3.4c-2.2-2.2-3.4-5.1-3.4-8.1
	c0-3.1,1.2-6,3.4-8.1c2.2-2.2,5.1-3.4,8.1-3.4c3.1,0,6,1.2,8.1,3.4l2.2,2.2l4.5-4.5L33,13.1c-1.7-1.7-3.7-3-5.9-3.9
	c-2.1-0.9-4.4-1.3-6.7-1.3s-4.6,0.4-6.7,1.3c-2.2,0.9-4.2,2.2-5.9,3.9c-6.9,6.9-6.9,18.2,0,25.2c1.7,1.7,3.7,3,5.9,3.9
	c2.1,0.9,4.4,1.3,6.7,1.3s4.6-0.4,6.7-1.3c2.2-0.9,4.2-2.2,5.9-3.9l2.2-2.2L30.7,31.7z"/>
<g id="XMLID_10_">
	<path id="XMLID_11_" fill="#0095AD" d="M64,13.1c-1.7-1.7-3.7-3-5.9-3.9c-2.1-0.9-4.4-1.3-6.7-1.3s-4.6,0.4-6.7,1.3
		c-2.2,0.9-4.2,2.2-5.9,3.9L27,25l-0.7,0.7l0.7,0.7l11.9,11.9c1.7,1.7,3.7,3,5.9,3.9c2.1,0.9,4.4,1.3,6.7,1.3s4.6-0.4,6.7-1.3
		c2.2-0.9,4.2-2.2,5.9-3.9C71,31.4,71,20.1,64,13.1z M59.6,33.9c-2.2,2.2-5.1,3.4-8.1,3.4c-3.1,0-6-1.2-8.1-3.4l-8.1-8.1l8.1-8.1
		c2.2-2.2,5.1-3.4,8.1-3.4c3.1,0,6,1.2,8.1,3.4s3.4,5.1,3.4,8.1C62.9,28.8,61.7,31.7,59.6,33.9z"/>
</g>
</svg>
